<svg width="44" height="32" viewBox="0 0 44 32" fill="none" xmlns="http://www.w3.org/2000/svg">
<path d="M27.2393 31.807C26.7962 31.807 26.3531 31.6437 26.0032 31.2939C25.3268 30.6175 25.3268 29.498 26.0032 28.8216L38.9243 15.9005L26.0032 2.97954C25.3268 2.30317 25.3268 1.18365 26.0032 0.50728C26.6796 -0.169093 27.7991 -0.169093 28.4755 0.50728L42.6327 14.6644C43.309 15.3408 43.309 16.4603 42.6327 17.1367L28.4755 31.2939C28.1256 31.6437 27.6825 31.807 27.2393 31.807Z" fill="#B0FF07"/>
<path d="M41.0022 17.6496H1.74924C0.792989 17.6496 0 16.8566 0 15.9003C0 14.9441 0.792989 14.1511 1.74924 14.1511H41.0022C41.9584 14.1511 42.7514 14.9441 42.7514 15.9003C42.7514 16.8566 41.9584 17.6496 41.0022 17.6496Z" fill="#B0FF07"/>
</svg>
