<?xml version="1.0" encoding="utf-8"?>
<!-- Generator: Adobe Illustrator 25.2.0, SVG Export Plug-In . SVG Version: 6.00 Build 0)  -->
<svg version="1.1" id="Layer_1" xmlns="http://www.w3.org/2000/svg" xmlns:xlink="http://www.w3.org/1999/xlink" x="0px" y="0px"
	 viewBox="0 0 909.8 265.4" style="enable-background:new 0 0 909.8 265.4;" xml:space="preserve">
<style type="text/css">
	.st0{fill:#B0FF07;}
	.st1{fill:#F5F5F5;fill-opacity:0.5;}
	.st2{opacity:0.8;}
	.st3{fill:#7195A8;}
</style>
<g id="Layer_2_1_">
	<g id="Layer_1-2">
		<path class="st0" d="M2,141.6V1.6h4v136.2h83.4v3.8H2z M118,141.6V1.6h4v140H118z M175.2,141.6V1.6h55.4c14.4,0,25.8,3,34.2,9
			c8.5,5.9,12.8,14.7,12.8,26.4c0,7.7-1.9,14.2-5.6,19.4c-4,5.2-9.4,9.2-15.6,11.4c-7.4,2.7-15.2,3.9-23,3.8l3.4-2.6
			c10.8,0,19.7,1.4,26.8,4.2c7.2,2.7,12.6,6.7,16.2,12s5.4,11.9,5.4,19.8c0,11.7-4.2,20.8-12.6,27.2c-8.3,6.3-20.9,9.4-38,9.4
			L175.2,141.6z M179.2,137.8h56.2c14.9,0,26.3-2.6,34-7.8c7.9-5.3,11.8-13.7,11.8-25s-3.9-19.6-11.8-24.8c-7.7-5.2-19.1-7.8-34-7.8
			h-57.2v-3.8h53.2c13.3,0,23.7-2.7,31-8c7.5-5.3,11.2-13.2,11.2-23.6s-3.7-18.3-11.2-23.6c-7.3-5.3-17.7-8-31-8h-52.2V137.8z
			 M324.8,141.6V1.6h47.4c11.5,0,21.3,1.9,29.4,5.6c8.3,3.6,14.6,8.8,19,15.6s6.6,15.1,6.6,24.8c0,9.6-2.2,17.9-6.6,24.8
			c-4.4,6.8-10.7,12.1-19,15.8c-8.1,3.6-17.9,5.4-29.4,5.4H327l1.8-1.8v49.8L324.8,141.6L324.8,141.6z M424.2,141.6l-36.6-50.8h5
			l36.6,50.8H424.2z M328.8,91.4l-1.8-1.6h45.6c16.4,0,28.9-3.7,37.6-11c8.7-7.5,13-17.9,13-31.2c0-13.5-4.3-23.9-13-31.2
			s-21.2-11-37.6-11H327l1.8-1.6V91.4z M443.2,141.6l65-140h4l65,139.6l-2,5l-66-141.4h2l-63.4,136.8L443.2,141.6L443.2,141.6z
			 M464.6,99.4l2-3.8h87l2,3.8H464.6z"/>
		<path class="st1" d="M531.9,184.6c-0.8,0.2-1.5-0.3-1.7-1.1c0-0.2,0-0.4,0-0.6l1.7-81.8c-0.1-0.8,0.5-1.6,1.3-1.7
			c0.1,0,0.3,0,0.4,0h18.7c0.8,0,1.6,0.5,1.8,1.3l21.1,45l20.8-45c0.3-0.8,1.1-1.3,2-1.3h18.6c1,0,1.6,0.6,1.6,1.7l1.8,81.8
			c0,0.5-0.2,1-0.5,1.3s-0.7,0.4-1.2,0.4h-14.9c-0.8,0.1-1.6-0.4-1.7-1.3c0-0.1,0-0.3,0-0.4l-0.8-35.5c-0.1-3.6-0.1-7.2,0-10.9
			c0.2-3.8,0.3-7.5,0.5-11.1H601c-1.5,3.5-3,7-4.7,10.7c-1.6,3.6-3.3,7.2-5.1,10.5l-14,28.5c-0.4,0.7-1.2,1.1-2,1h-0.7
			c-0.8,0.1-1.5-0.3-1.8-1l-14.2-28.7c-1.6-3.4-3.3-6.8-4.9-10.4c-1.6-3.6-3.2-7.1-4.5-10.5h-0.4c0.2,3.6,0.3,7.2,0.4,10.9
			s0.1,7.3,0,10.8l-0.8,35.8c0.1,0.8-0.4,1.6-1.3,1.7c-0.1,0-0.3,0-0.4,0L531.9,184.6z M635.1,184.6c-0.8,0.1-1.6-0.4-1.7-1.3
			c0-0.1,0-0.3,0-0.4v-81.8c-0.1-0.8,0.5-1.6,1.3-1.7c0.1,0,0.3,0,0.4,0H687c0.8-0.1,1.6,0.5,1.7,1.3c0,0.1,0,0.3,0,0.4V114
			c0,1-0.6,1.6-1.7,1.6h-35v18.5h31.8c0.8-0.1,1.6,0.5,1.7,1.3c0,0.1,0,0.3,0,0.4v12c0,1-0.6,1.6-1.7,1.6H652v19.2h35
			c1.1,0,1.7,0.5,1.7,1.6v12.9c0.1,0.8-0.5,1.6-1.3,1.7c-0.1,0-0.3,0-0.4,0L635.1,184.6z M705.8,184.6c-0.8,0.1-1.6-0.4-1.7-1.3
			c0-0.1,0-0.3,0-0.4v-81.8c-0.1-0.8,0.5-1.6,1.3-1.7c0.1,0,0.3,0,0.4,0h51.1c0.8-0.1,1.6,0.5,1.7,1.3c0,0.1,0,0.3,0,0.4V114
			c0,1-0.6,1.6-1.7,1.6h-34.2v15.2h12.1c11.3,0,19.5,2.2,24.8,6.5s8,10.7,8.1,19c0,6.2-1.2,11.4-3.6,15.6c-2.5,4.3-6.4,7.7-11,9.5
			c-5,2.2-11.4,3.2-19.1,3.2H705.8z M722.7,169.5h10.9c5.2,0,9.1-1,11.7-3c2.6-2,3.9-5.2,3.9-9.8c0-4.3-1.3-7.4-3.8-9.2
			s-6.4-2.7-11.6-2.7h-11.2L722.7,169.5z M772.2,184.6c-1.2,0-1.7-0.6-1.3-1.8l27.2-82c0.3-0.8,1.1-1.4,2-1.3H820
			c0.8-0.1,1.6,0.5,1.8,1.3l27.4,82c0.2,0.4,0.1,0.9-0.1,1.3c-0.2,0.4-0.6,0.5-1.2,0.5h-16.8c-0.8,0.1-1.6-0.5-1.8-1.3L814.6,133
			c-0.9-2.9-1.7-5.9-2.5-8.8c-0.7-3-1.4-6-2.2-9h-0.3c-0.8,3-1.5,6-2.2,9s-1.5,6-2.3,9l-14.6,50c-0.2,0.9-0.9,1.5-1.8,1.4
			L772.2,184.6L772.2,184.6z M859.1,184.6c-0.8,0.1-1.6-0.4-1.7-1.3c0-0.1,0-0.3,0-0.4v-81.8c-0.1-0.8,0.5-1.6,1.3-1.7
			c0.1,0,0.3,0,0.4,0h15.2c0.8-0.1,1.6,0.5,1.7,1.3c0,0.1,0,0.3,0,0.4v81.8c0.1,0.8-0.4,1.6-1.3,1.7c-0.1,0-0.3,0-0.4,0L859.1,184.6
			L859.1,184.6z"/>
	</g>
</g>
<g>
	<g class="st2">
		<path class="st3" d="M2.3,185.5c-0.4,0-0.5-0.2-0.5-0.5v-19.7c0-1.4,0-2.6-0.1-3.6c0-1-0.1-1.8-0.2-2.4c0-0.4,0.1-0.7,0.5-0.7h3.3
			c0.4,0,0.6,0.2,0.6,0.5c0.1,0.7,0.2,1.5,0.3,2.6c0.1,1.1,0.2,1.9,0.2,2.6l0.1,0.7v20c0,0.3-0.2,0.5-0.5,0.5L2.3,185.5L2.3,185.5z
			 M18.4,185.5c-0.4,0-0.5-0.2-0.5-0.5v-19c0-1.5-0.3-2.5-1-3.2c-0.6-0.7-1.6-1-3-1c-1.2,0-2.5,0.4-3.7,1c-1.2,0.7-2.7,1.8-4.4,3.3
			l-0.2-3.4c1.7-1.6,3.3-2.8,4.8-3.5c1.5-0.8,3.2-1.1,5-1.1c2.3,0,4.1,0.6,5.3,1.9c1.2,1.3,1.8,3.2,1.8,5.8V185
			c0,0.3-0.2,0.5-0.5,0.5H18.4z"/>
		<path class="st3" d="M30.7,195.7c-0.4,0-0.5-0.2-0.5-0.5v-30.4c0-1.2,0-2.2-0.1-3.2c0-0.9-0.1-1.8-0.2-2.5
			c-0.1-0.4,0.1-0.6,0.5-0.6h3.3c0.4,0,0.6,0.2,0.6,0.5c0.1,0.4,0.2,1,0.3,1.7s0.1,1.4,0.1,1.9l0.3,1.9v30.6c0,0.3-0.2,0.5-0.5,0.5
			h-3.8V195.7z M41.9,185.9c-1.3,0-2.7-0.2-4.1-0.5c-1.4-0.3-2.6-0.7-3.5-1.2l-0.1-3.6c0.9,0.5,2,0.9,3.1,1.2s2.3,0.4,3.4,0.4
			c1.7,0,2.9-0.5,3.8-1.5c0.8-1,1.3-2.6,1.3-4.8v-9.5c0-1.6-0.3-2.8-0.9-3.5s-1.5-1.1-2.8-1.1c-1.2,0-2.5,0.4-3.8,1.1
			c-1.3,0.7-2.7,1.8-4.3,3.3l-0.2-3.6c1.6-1.5,3.2-2.6,4.7-3.4c1.5-0.7,3.1-1.1,4.8-1.1c2.4,0,4.2,0.6,5.4,1.9s1.8,3.3,1.8,6v10.1
			c0,3.2-0.7,5.6-2.2,7.3C46.8,185.1,44.7,185.9,41.9,185.9z"/>
		<path class="st3" d="M67.5,185.9c-3.5,0-6.1-0.8-7.9-2.4s-2.7-4-2.7-7.3v-8.4c0-3.3,0.9-5.7,2.7-7.3s4.4-2.4,8-2.4
			c3.5,0,6.2,0.8,8,2.4c1.8,1.6,2.7,4,2.7,7.3v8.4c0,3.2-0.9,5.7-2.7,7.3C73.7,185.1,71.1,185.9,67.5,185.9z M67.5,182.2
			c2.1,0,3.6-0.5,4.5-1.5s1.4-2.6,1.4-4.7v-7.9c0-2.2-0.5-3.8-1.4-4.7c-0.9-1-2.4-1.5-4.5-1.5c-2,0-3.5,0.5-4.4,1.5
			s-1.4,2.6-1.4,4.7v7.9c0,2.1,0.5,3.7,1.4,4.7S65.5,182.2,67.5,182.2z"/>
		<path class="st3" d="M94.9,185.9c-3.4,0-6.1-0.8-7.8-2.4c-1.8-1.6-2.7-4-2.7-7.3v-8.6c0-3.2,0.9-5.6,2.6-7.2
			c1.7-1.6,4.3-2.3,7.7-2.3c3.4,0,5.9,0.8,7.6,2.4s2.6,3.9,2.6,7v5c0,0.3-0.2,0.5-0.5,0.5H89.2v2.8c0,2.3,0.5,3.9,1.4,4.9
			s2.4,1.5,4.4,1.5c1.6,0,2.9-0.3,3.7-0.9c0.8-0.6,1.2-1.5,1.1-2.6c0-0.4,0.2-0.6,0.5-0.6h3.6c0.3,0,0.4,0.2,0.5,0.5
			c0.1,2.3-0.7,4.1-2.4,5.4C100.5,185.3,98.1,185.9,94.9,185.9z M89.2,169.4h10.9v-1.7c0-2.1-0.4-3.6-1.3-4.5s-2.2-1.4-4.1-1.4
			s-3.3,0.5-4.2,1.4c-0.9,1-1.4,2.4-1.4,4.5L89.2,169.4L89.2,169.4z"/>
		<path class="st3" d="M132.8,184.9c0.1,0.1,0.1,0.3,0,0.4c-0.1,0.1-0.2,0.2-0.4,0.2h-4.2c-0.4,0-0.6-0.1-0.7-0.4l-7.4-12.3h-3.6
			V185c0,0.3-0.2,0.5-0.5,0.5h-3.7c-0.4,0-0.5-0.2-0.5-0.5v-36.7c0-0.3,0.2-0.5,0.5-0.5h3.7c0.4,0,0.5,0.2,0.5,0.5v21.1h3.5
			l6.7-10.4c0.2-0.2,0.4-0.3,0.7-0.3h4.2c0.2,0,0.4,0.1,0.4,0.2c0,0.1,0,0.3-0.1,0.4l-7.8,11.4L132.8,184.9z"/>
		<path class="st3" d="M137.4,185.5c-0.4,0-0.5-0.2-0.5-0.5v-19.7c0-1.4,0-2.5-0.1-3.6c0-1-0.1-1.8-0.2-2.5c0-0.4,0.1-0.7,0.5-0.7
			h3.3c0.3,0,0.5,0.1,0.5,0.4c0.1,0.6,0.2,1.1,0.2,1.6c0.1,0.5,0.1,1,0.2,1.6c1.5-1.4,2.9-2.4,4.3-3.1c1.4-0.7,2.9-1,4.5-1
			s2.9,0.3,3.9,1s1.8,1.7,2.2,3.1c1.5-1.4,3-2.4,4.3-3.1c1.4-0.7,2.9-1,4.6-1c2.1,0,3.7,0.6,4.8,1.8s1.7,3,1.7,5.4V185
			c0,0.3-0.2,0.5-0.5,0.5h-3.7c-0.4,0-0.5-0.2-0.5-0.5v-19.2c0-1.4-0.3-2.4-0.8-3c-0.6-0.6-1.4-0.9-2.6-0.9c-1.1,0-2.1,0.3-3.2,0.9
			c-1.1,0.6-2.3,1.5-3.7,2.8V185c0,0.3-0.2,0.5-0.5,0.5h-3.7c-0.4,0-0.5-0.2-0.5-0.5v-19.2c0-1.4-0.3-2.4-0.8-3
			c-0.6-0.6-1.4-0.9-2.6-0.9c-1.1,0-2.1,0.3-3.2,0.9c-1.1,0.6-2.3,1.5-3.7,2.8V185c0,0.3-0.2,0.5-0.5,0.5H137.4z"/>
		<path class="st3" d="M183,195.7c-0.2,0-0.3-0.1-0.4-0.2c-0.1-0.1-0.1-0.3,0-0.4l3.5-9.9l-9.3-25.9c-0.2-0.4,0-0.6,0.4-0.6h4
			c0.3,0,0.5,0.1,0.6,0.4l4.3,13.1c0.4,1.2,0.8,2.5,1.1,3.7c0.4,1.3,0.7,2.5,1,3.7h0.1c0.4-1.2,0.7-2.4,1.1-3.7
			c0.4-1.3,0.7-2.5,1.1-3.7l4.2-13.1c0.1-0.3,0.4-0.4,0.7-0.4h3.9c0.4,0,0.6,0.2,0.4,0.6l-12.5,36.1c0,0.3-0.2,0.4-0.6,0.4H183
			V195.7z"/>
		<path class="st3" d="M214.6,185.9c-3.4,0-5.9-0.7-7.7-2.1c-1.7-1.4-2.6-3.7-2.6-6.9v-10c0-3,0.9-5.2,2.6-6.6
			c1.7-1.4,4.2-2.1,7.5-2.1c2.2,0,4.1,0.3,5.6,0.9c1.5,0.6,2.6,1.4,3.3,2.4s1,2.3,0.9,3.7c0,0.3-0.1,0.5-0.2,0.6
			c-0.1,0.1-0.2,0.1-0.4,0.1H220c-0.4,0-0.5-0.2-0.5-0.7c0-1.1-0.4-1.9-1.2-2.5s-2.1-0.9-3.8-0.9c-1.9,0-3.2,0.4-4.1,1.2
			c-0.9,0.8-1.3,2.1-1.3,3.9v3.1h9.7c0.3,0,0.5,0.2,0.5,0.5v2.5c0,0.3-0.2,0.5-0.5,0.5h-9.7v3.4c0,1.9,0.5,3.3,1.4,4.1
			s2.3,1.2,4.3,1.2c1.7,0,2.9-0.3,3.8-0.9c0.8-0.6,1.3-1.4,1.3-2.5c0-0.4,0.2-0.7,0.5-0.7h3.6c0.4,0,0.5,0.2,0.5,0.7
			c0.1,2-0.6,3.7-2.3,5C220.5,185.2,218,185.9,214.6,185.9z"/>
		<path class="st3" d="M231.6,185.5c-0.4,0-0.6-0.2-0.6-0.5l0.5-25.9c0-0.3,0.2-0.5,0.5-0.5h4.3c0.3,0,0.5,0.1,0.6,0.4l6.8,15.4
			l6.8-15.4c0.2-0.3,0.4-0.4,0.6-0.4h4.4c0.4,0,0.5,0.2,0.5,0.5l0.4,25.9c0,0.3-0.2,0.5-0.5,0.5h-3.5c-0.4,0-0.5-0.2-0.5-0.5
			l-0.1-12.3c0-0.6,0-1.3,0.1-2.4c0-1,0.1-2.1,0.2-3.3c0.1-1.1,0.2-2.1,0.3-3h-0.2c-0.4,1.2-0.8,2.4-1.2,3.5s-0.8,2-1.2,2.8
			l-5.4,11.1c0,0.2-0.2,0.3-0.5,0.3s-0.5-0.1-0.6-0.3l-5.4-11.1c-0.3-0.8-0.7-1.7-1.1-2.8c-0.4-1.1-0.8-2.2-1.2-3.5h-0.2
			c0.1,0.8,0.2,1.8,0.2,3c0.1,1.1,0.1,2.2,0.2,3.3c0,1,0.1,1.8,0.1,2.4V185c0,0.3-0.2,0.5-0.5,0.5H231.6z"/>
		<path class="st3" d="M273.6,185.9c-3.5,0-6.1-0.8-7.9-2.4s-2.7-4-2.7-7.3v-8.4c0-3.3,0.9-5.7,2.7-7.3c1.8-1.6,4.4-2.4,8-2.4
			c3.5,0,6.2,0.8,8,2.4c1.8,1.6,2.7,4,2.7,7.3v8.4c0,3.2-0.9,5.7-2.7,7.3C279.8,185.1,277.1,185.9,273.6,185.9z M273.6,182.2
			c2.1,0,3.6-0.5,4.5-1.5s1.4-2.6,1.4-4.7v-7.9c0-2.2-0.5-3.8-1.4-4.7c-0.9-1-2.4-1.5-4.5-1.5c-2,0-3.5,0.5-4.4,1.5
			s-1.4,2.6-1.4,4.7v7.9c0,2.1,0.5,3.7,1.4,4.7S271.6,182.2,273.6,182.2z"/>
		<path class="st3" d="M322.7,184.9c0.1,0.1,0.1,0.3,0,0.4c-0.1,0.1-0.2,0.2-0.4,0.2h-4.2c-0.4,0-0.6-0.1-0.7-0.4l-7.4-12.3h-3.6
			V185c0,0.3-0.2,0.5-0.5,0.5h-3.7c-0.4,0-0.5-0.2-0.5-0.5v-36.7c0-0.3,0.2-0.5,0.5-0.5h3.7c0.4,0,0.5,0.2,0.5,0.5v21.1h3.5
			l6.7-10.4c0.2-0.2,0.4-0.3,0.7-0.3h4.2c0.2,0,0.4,0.1,0.4,0.2c0,0.1,0,0.3-0.1,0.4l-7.8,11.4L322.7,184.9z"/>
		<path class="st3" d="M336.7,185.9c-3.5,0-6.1-0.8-7.9-2.4s-2.7-4-2.7-7.3v-8.4c0-3.3,0.9-5.7,2.7-7.3c1.8-1.6,4.4-2.4,8-2.4
			c3.5,0,6.2,0.8,8,2.4c1.8,1.6,2.7,4,2.7,7.3v8.4c0,3.2-0.9,5.7-2.7,7.3C342.9,185.1,340.3,185.9,336.7,185.9z M336.7,182.2
			c2.1,0,3.6-0.5,4.5-1.5s1.4-2.6,1.4-4.7v-7.9c0-2.2-0.5-3.8-1.4-4.7c-0.9-1-2.4-1.5-4.5-1.5c-2,0-3.5,0.5-4.4,1.5
			s-1.4,2.6-1.4,4.7v7.9c0,2.1,0.5,3.7,1.4,4.7S334.7,182.2,336.7,182.2z"/>
		<path class="st3" d="M354.6,185.5c-0.4,0-0.6-0.2-0.6-0.5l0.5-25.9c0-0.3,0.2-0.5,0.5-0.5h4.3c0.3,0,0.5,0.1,0.6,0.4l6.8,15.4
			l6.8-15.4c0.2-0.3,0.4-0.4,0.6-0.4h4.4c0.4,0,0.5,0.2,0.5,0.5l0.4,25.9c0,0.3-0.2,0.5-0.5,0.5h-3.5c-0.4,0-0.5-0.2-0.5-0.5
			l-0.1-12.3c0-0.6,0-1.3,0.1-2.4c0-1,0.1-2.1,0.2-3.3c0.1-1.1,0.2-2.1,0.3-3H375c-0.4,1.2-0.8,2.4-1.2,3.5c-0.4,1.1-0.8,2-1.2,2.8
			l-5.4,11.1c0,0.2-0.2,0.3-0.5,0.3s-0.5-0.1-0.6-0.3l-5.4-11.1c-0.3-0.8-0.7-1.7-1.1-2.8s-0.8-2.2-1.2-3.5h-0.2
			c0.1,0.8,0.2,1.8,0.2,3c0.1,1.1,0.1,2.2,0.2,3.3c0,1,0.1,1.8,0.1,2.4V185c0,0.3-0.2,0.5-0.5,0.5H354.6z"/>
		<path class="st3" d="M397.5,185.9c-3.7,0-6.5-0.7-8.5-2.2s-3-3.8-3-7.1v-9.2c0-3.2,1-5.6,3-7.1s4.9-2.2,8.5-2.2h6.4
			c3.7,0,6.5,0.7,8.5,2.2s3,3.8,3,7.1v9.2c0,3.2-1,5.6-3,7.1s-4.9,2.2-8.5,2.2H397.5z M397.3,182.3h7c2.1,0,3.7-0.5,4.8-1.4
			c1.1-1,1.7-2.4,1.7-4.5v-8.8c0-2.1-0.6-3.6-1.7-4.5s-2.7-1.4-4.8-1.4h-7c-2.1,0-3.7,0.5-4.8,1.4c-1.1,0.9-1.7,2.4-1.7,4.5v8.8
			c0,2,0.6,3.5,1.7,4.5C393.5,181.8,395.1,182.3,397.3,182.3z M398.9,195.7c-0.4,0-0.6-0.2-0.6-0.5v-10.4l0.1-0.9v-23.3l-0.1-1.3
			v-11c0-0.3,0.2-0.4,0.6-0.4h3.6c0.4,0,0.5,0.1,0.5,0.4v11l-0.1,1.3v23.2l0.1,1v10.4c0,0.3-0.2,0.5-0.5,0.5H398.9z"/>
		<path class="st3" d="M432.4,185.9c-3.5,0-6.1-0.8-7.9-2.4s-2.7-4-2.7-7.3v-8.4c0-3.3,0.9-5.7,2.7-7.3c1.8-1.6,4.4-2.4,8-2.4
			c3.5,0,6.2,0.8,8,2.4c1.8,1.6,2.7,4,2.7,7.3v8.4c0,3.2-0.9,5.7-2.7,7.3C438.6,185.1,435.9,185.9,432.4,185.9z M432.4,182.2
			c2.1,0,3.6-0.5,4.5-1.5s1.4-2.6,1.4-4.7v-7.9c0-2.2-0.5-3.8-1.4-4.7c-0.9-1-2.4-1.5-4.5-1.5c-2,0-3.5,0.5-4.4,1.5
			s-1.4,2.6-1.4,4.7v7.9c0,2.1,0.5,3.7,1.4,4.7S430.4,182.2,432.4,182.2z"/>
		<path class="st3" d="M450.5,195.7c-0.4,0-0.5-0.2-0.5-0.5v-30.4c0-1.2,0-2.2-0.1-3.2c0-0.9-0.1-1.8-0.2-2.5
			c-0.1-0.4,0.1-0.6,0.5-0.6h3.3c0.4,0,0.6,0.2,0.6,0.5c0.1,0.4,0.2,1,0.3,1.7c0.1,0.7,0.1,1.4,0.1,1.9l0.3,1.9v30.6
			c0,0.3-0.2,0.5-0.5,0.5h-3.8V195.7z M461.7,185.9c-1.3,0-2.7-0.2-4.1-0.5s-2.6-0.7-3.5-1.2l-0.1-3.6c0.9,0.5,2,0.9,3.1,1.2
			s2.3,0.4,3.4,0.4c1.7,0,2.9-0.5,3.8-1.5c0.8-1,1.3-2.6,1.3-4.8v-9.5c0-1.6-0.3-2.8-0.9-3.5s-1.5-1.1-2.8-1.1
			c-1.2,0-2.5,0.4-3.8,1.1c-1.3,0.7-2.7,1.8-4.3,3.3l-0.2-3.6c1.6-1.5,3.2-2.6,4.7-3.4c1.5-0.7,3.1-1.1,4.8-1.1
			c2.4,0,4.2,0.6,5.4,1.9s1.8,3.3,1.8,6v10.1c0,3.2-0.7,5.6-2.2,7.3C466.6,185.1,464.5,185.9,461.7,185.9z"/>
		<path class="st3" d="M477.9,185.5c-0.4,0-0.5-0.2-0.5-0.5v-19.7c0-1.4,0-2.5-0.1-3.6c0-1-0.1-1.8-0.2-2.5c0-0.4,0.1-0.7,0.5-0.7
			h3.3c0.3,0,0.5,0.1,0.5,0.4c0.1,0.6,0.2,1.1,0.2,1.6c0.1,0.5,0.1,1,0.2,1.6c1.5-1.4,2.9-2.4,4.3-3.1c1.4-0.7,2.9-1,4.5-1
			s2.9,0.3,3.9,1s1.8,1.7,2.2,3.1c1.5-1.4,3-2.4,4.3-3.1c1.4-0.7,2.9-1,4.6-1c2.1,0,3.7,0.6,4.8,1.8s1.7,3,1.7,5.4V185
			c0,0.3-0.2,0.5-0.5,0.5h-3.7c-0.4,0-0.5-0.2-0.5-0.5v-19.2c0-1.4-0.3-2.4-0.8-3c-0.6-0.6-1.4-0.9-2.6-0.9c-1.1,0-2.1,0.3-3.2,0.9
			c-1.1,0.6-2.3,1.5-3.7,2.8V185c0,0.3-0.2,0.5-0.5,0.5h-3.7c-0.4,0-0.5-0.2-0.5-0.5v-19.2c0-1.4-0.3-2.4-0.8-3
			c-0.6-0.6-1.4-0.9-2.6-0.9c-1.1,0-2.1,0.3-3.2,0.9c-1.1,0.6-2.3,1.5-3.7,2.8V185c0,0.3-0.2,0.5-0.5,0.5H477.9z"/>
	</g>
</g>
</svg>
