<?xml version="1.0" encoding="utf-8"?>
<!-- Generator: Adobe Illustrator 25.2.0, SVG Export Plug-In . SVG Version: 6.00 Build 0)  -->
<svg version="1.1" id="Layer_1" xmlns="http://www.w3.org/2000/svg" xmlns:xlink="http://www.w3.org/1999/xlink" x="0px" y="0px"
	 viewBox="0 0 909.8 265.4" style="enable-background:new 0 0 909.8 265.4;" xml:space="preserve">
<style type="text/css">
	.st0{fill:#B0FF07;}
	.st1{fill:#F5F5F5;fill-opacity:0.5;}
</style>
<g id="Layer_2_1_">
	<g id="Layer_1-2">
		<path class="st0" d="M35.8,222.4v-140h4v136.2h83.4v3.8H35.8z M151.8,222.4v-140h4v140H151.8z M209,222.4v-140h55.4
			c14.4,0,25.8,3,34.2,9c8.5,5.9,12.8,14.7,12.8,26.4c0,7.7-1.9,14.2-5.6,19.4c-4,5.2-9.4,9.2-15.6,11.4c-7.4,2.7-15.2,3.9-23,3.8
			l3.4-2.6c10.8,0,19.7,1.4,26.8,4.2c7.2,2.7,12.6,6.7,16.2,12c3.6,5.3,5.4,11.9,5.4,19.8c0,11.7-4.2,20.8-12.6,27.2
			c-8.3,6.3-20.9,9.4-38,9.4L209,222.4z M213,218.6h56.2c14.9,0,26.3-2.6,34-7.8c7.9-5.3,11.8-13.7,11.8-25s-3.9-19.6-11.8-24.8
			c-7.7-5.2-19.1-7.8-34-7.8H212v-3.8h53.2c13.3,0,23.7-2.7,31-8c7.5-5.3,11.2-13.2,11.2-23.6s-3.7-18.3-11.2-23.6
			c-7.3-5.3-17.7-8-31-8H213L213,218.6z M358.6,222.4v-140H406c11.5,0,21.3,1.9,29.4,5.6c8.3,3.6,14.6,8.8,19,15.6
			c4.4,6.8,6.6,15.1,6.6,24.8c0,9.6-2.2,17.9-6.6,24.8c-4.4,6.8-10.7,12.1-19,15.8c-8.1,3.6-17.9,5.4-29.4,5.4h-45.2l1.8-1.8v49.8
			H358.6z M458,222.4l-36.6-50.8h5l36.6,50.8H458z M362.6,172.2l-1.8-1.6h45.6c16.4,0,28.9-3.7,37.6-11c8.7-7.5,13-17.9,13-31.2
			c0-13.5-4.3-23.9-13-31.2c-8.7-7.3-21.2-11-37.6-11h-45.6l1.8-1.6V172.2z M477,222.4l65-140h4L611,222l-2,5L543,85.6h2
			l-63.4,136.8H477z M498.4,180.2l2-3.8h87l2,3.8H498.4z"/>
		<path class="st1" d="M565.7,265.4c-0.8,0.2-1.5-0.3-1.7-1.1c0-0.2,0-0.4,0-0.6l1.7-81.8c-0.1-0.8,0.5-1.6,1.3-1.7
			c0.1,0,0.3,0,0.4,0h18.7c0.8,0,1.6,0.5,1.8,1.3l21.1,45l20.8-45c0.3-0.8,1.1-1.3,2-1.3h18.6c1,0,1.6,0.6,1.6,1.7l1.8,81.8
			c0,0.5-0.2,1-0.5,1.3c-0.3,0.3-0.7,0.4-1.2,0.4h-14.9c-0.8,0.1-1.6-0.4-1.7-1.3c0-0.1,0-0.3,0-0.4l-0.8-35.5
			c-0.1-3.6-0.1-7.2,0-10.9c0.2-3.8,0.3-7.5,0.5-11.1h-0.4c-1.5,3.5-3,7-4.7,10.7c-1.6,3.6-3.3,7.2-5.1,10.5l-14,28.5
			c-0.4,0.7-1.2,1.1-2,1h-0.7c-0.8,0.1-1.5-0.3-1.8-1l-14.2-28.7c-1.6-3.4-3.3-6.8-4.9-10.4c-1.6-3.6-3.2-7.1-4.5-10.5h-0.4
			c0.2,3.6,0.3,7.2,0.4,10.9s0.1,7.3,0,10.8l-0.8,35.8c0.1,0.8-0.4,1.6-1.3,1.7c-0.1,0-0.3,0-0.4,0L565.7,265.4z M668.9,265.4
			c-0.8,0.1-1.6-0.4-1.7-1.3c0-0.1,0-0.3,0-0.4v-81.8c-0.1-0.8,0.5-1.6,1.3-1.7c0.1,0,0.3,0,0.4,0h51.9c0.8-0.1,1.6,0.5,1.7,1.3
			c0,0.1,0,0.3,0,0.4v12.9c0,1-0.6,1.6-1.7,1.6h-35v18.5h31.8c0.8-0.1,1.6,0.5,1.7,1.3c0,0.1,0,0.3,0,0.4v12c0,1-0.6,1.6-1.7,1.6
			h-31.8v19.2h35c1.1,0,1.7,0.5,1.7,1.6v12.9c0.1,0.8-0.5,1.6-1.3,1.7c-0.1,0-0.3,0-0.4,0L668.9,265.4z M739.6,265.4
			c-0.8,0.1-1.6-0.4-1.7-1.3c0-0.1,0-0.3,0-0.4v-81.8c-0.1-0.8,0.5-1.6,1.3-1.7c0.1,0,0.3,0,0.4,0h51.1c0.8-0.1,1.6,0.5,1.7,1.3
			c0,0.1,0,0.3,0,0.4v12.9c0,1-0.6,1.6-1.7,1.6h-34.2v15.2h12.1c11.3,0,19.5,2.2,24.8,6.5c5.3,4.3,8,10.7,8.1,19
			c0,6.2-1.2,11.4-3.6,15.6c-2.5,4.3-6.4,7.7-11,9.5c-5,2.2-11.4,3.2-19.1,3.2L739.6,265.4z M756.5,250.3h10.9c5.2,0,9.1-1,11.7-3
			c2.6-2,3.9-5.2,3.9-9.8c0-4.3-1.3-7.4-3.8-9.2c-2.5-1.8-6.4-2.7-11.6-2.7h-11.2L756.5,250.3z M806,265.4c-1.2,0-1.7-0.6-1.3-1.8
			l27.2-82c0.3-0.8,1.1-1.4,2-1.3h19.9c0.8-0.1,1.6,0.5,1.8,1.3l27.4,82c0.2,0.4,0.1,0.9-0.1,1.3c-0.2,0.4-0.6,0.5-1.2,0.5h-16.8
			c-0.8,0.1-1.6-0.5-1.8-1.3l-14.7-50.3c-0.9-2.9-1.7-5.9-2.5-8.8c-0.7-3-1.4-6-2.2-9h-0.3c-0.8,3-1.5,6-2.2,9c-0.7,3-1.5,6-2.3,9
			L824.3,264c-0.2,0.9-0.9,1.5-1.8,1.4L806,265.4z M892.9,265.4c-0.8,0.1-1.6-0.4-1.7-1.3c0-0.1,0-0.3,0-0.4v-81.8
			c-0.1-0.8,0.5-1.6,1.3-1.7c0.1,0,0.3,0,0.4,0h15.2c0.8-0.1,1.6,0.5,1.7,1.3c0,0.1,0,0.3,0,0.4v81.8c0.1,0.8-0.4,1.6-1.3,1.7
			c-0.1,0-0.3,0-0.4,0H892.9z"/>
	</g>
</g>
</svg>
