<?xml version="1.0" encoding="utf-8"?>
<!-- Generator: Adobe Illustrator 25.2.0, SVG Export Plug-In . SVG Version: 6.00 Build 0)  -->
<svg version="1.1" id="Layer_1" xmlns="http://www.w3.org/2000/svg" xmlns:xlink="http://www.w3.org/1999/xlink" x="0px" y="0px"
	 viewBox="0 0 60 60" style="enable-background:new 0 0 60 60;" xml:space="preserve">
<style type="text/css">
	.st0{fill-rule:evenodd;clip-rule:evenodd;fill:url(#Oval_1_);}
	.st1{fill-rule:evenodd;clip-rule:evenodd;fill:#FFFFFF;}
</style>
<desc></desc>
<g id="Page-1">
	<g id="Social_icons" transform="translate(-422.000000, -1955.000000)">
		<g id="Geo" transform="translate(422.000000, 1955.000000)">
			<linearGradient id="Oval_1_" gradientUnits="userSpaceOnUse" x1="30" y1="21.4483" x2="30" y2="21.3448">
				<stop  offset="0" style="stop-color:#000000"/>
				<stop  offset="1" style="stop-color:#000000"/>
			</linearGradient>
			<circle id="Oval" class="st0" cx="30" cy="30" r="30"/>
			<path id="Combined-Shape" class="st1" d="M19.1,29.3C22,36,30,48,30,48s9.3-14.6,11.2-19.7h0c0.5-1.3,0.7-2.7,0.7-4.2
				C42,17.4,36.6,12,30,12s-12,5.4-12,12.1C18,26,18.4,27.7,19.1,29.3L19.1,29.3z M30,31c3.9,0,7-3.1,7-7s-3.1-7-7-7s-7,3.1-7,7
				S26.1,31,30,31L30,31z"/>
		</g>
	</g>
</g>
</svg>
