<svg id="Layer_1" data-name="Layer 1" xmlns="http://www.w3.org/2000/svg" viewBox="0 0 1080 1079.67"><defs><style>.cls-1{fill:#b0ff07;}.cls-2{font-size:8.87px;font-family:MyriadPro-Regular, Myriad Pro;}.cls-3{fill:#22485c;}</style></defs><polygon class="cls-1" points="722.37 896.53 541.78 1079.67 0 530.26 180.59 347.12 722.37 896.53"/><polygon class="cls-1" points="759.5 853.01 578.91 669.87 899.41 344.86 1080 528 759.5 853.01"/><text class="cls-2" transform="translate(271.74 171.47)">лг</text><path class="cls-3" d="M549.21,622.64q-5.18,5.24-9.48.84L240.81,306q-4.34-4.38.83-9.61L298.3,238.9c3-3,6.28-4.08,9.8-3.11l270.09,108L471,70.57q-1.42-5.35,3.08-9.94L530.76,3.17q5.15-5.22,9.48-.84L853.33,305.46q4.32,4.4-.83,9.61L817.08,351q-5.16,5.24-9.47.84L603.74,154.23q-15.37-15.58-31.62-32.72T540.18,87.16l-1.29,1.3q9.58,21.48,18.67,44.4t17.38,45.71L661.5,415.23q2.71,4.08-2.44,9.29l-2.57,2.61q-5.16,5.24-9.16,2.47L411.87,341q-22.47-8.38-43.95-17.79t-42.17-18.61l-1.29,1.31q17.13,14.77,33.71,31.57l31.47,31.91L585.45,577.12q4.32,4.38-.83,9.6Z" transform="translate(0 -0.33)"/></svg>