<svg id="Layer_1" data-name="Layer 1" xmlns="http://www.w3.org/2000/svg" viewBox="0 0 500 500"><defs><style>.cls-1{fill:#4f6875;}.cls-2{fill:none;stroke:#4f6875;stroke-miterlimit:10;}</style></defs><path class="cls-1" d="M47,7V128H6.5V7H47m1-1H5.5V129H48V6Z" transform="translate(-5.5 -5.96)"/><path class="cls-2" d="M62.17,55.79c.77,0,1.16.32,1.17,1l1.86,45.3.13,7.12q.08,3.75-.15,7.34h.29q1.23-3.37,2.55-6.86t2.83-7L86.79,66.1c.09-.51.52-.77,1.29-.77h.58c.77,0,1.21.25,1.31.75l17.16,36.11q1.65,3.47,3.24,7t2.95,7h.29q-.21-3.69-.35-7.44t-.21-7.23l.17-45.1c0-.65.36-1,1.14-1l8,0c.77,0,1.16.32,1.17,1l-.29,69.23c0,.65-.37,1-1.14,1l-12.73.07a1.56,1.56,0,0,1-1.46-.76l-19-42.5L71.29,126.16a1.52,1.52,0,0,1-1.43.77L57.13,127c-.77,0-1.16-.32-1.17-1L53.08,56.81c0-.65.36-1,1.13-1Z" transform="translate(-5.5 -5.96)"/><path class="cls-1" d="M122.87,7V47.75H53.74V7h69.13m1-1H52.74V48.75h71.13V6Z" transform="translate(-5.5 -5.96)"/><path class="cls-1" d="M126.58,211.73v40.78H6.5V211.73H126.58m1-1H5.5v42.78H127.58V210.73Z" transform="translate(-5.5 -5.96)"/><path class="cls-2" d="M55,196.41c0-.77.31-1.17,1-1.18l45-1.87,7.07-.14c2.48,0,4.9,0,7.28.16v-.29c-2.24-.84-4.51-1.69-6.81-2.57s-4.61-1.83-6.92-2.86L65.18,171.6c-.5-.09-.76-.52-.76-1.3v-.58c0-.78.24-1.22.74-1.33L101,151.1q3.45-1.66,7-3.26t7-3v-.3q-3.66.23-7.38.36t-7.17.21L55.67,145c-.65,0-1-.37-1-1.15l0-8c0-.77.31-1.17,1-1.18l68.7.3c.65,0,1,.37,1,1.14l.06,12.82a1.61,1.61,0,0,1-.75,1.48L82.43,169.52l42.36,17.7a1.55,1.55,0,0,1,.76,1.44l.06,12.82c0,.78-.32,1.18-1,1.19L56,205.57c-.65,0-1-.37-1-1.14Z" transform="translate(-5.5 -5.96)"/><path class="cls-1" d="M47,135.24v69.67H6.5V135.24H47m1-1H5.5v71.67H48V134.24Z" transform="translate(-5.5 -5.96)"/><path class="cls-1" d="M251.85,7V47.75H131.77V7H251.85m1-1H130.77V48.75H252.85V6Z" transform="translate(-5.5 -5.96)"/><path class="cls-2" d="M203.4,63.06c0,.78-.32,1.17-1,1.18l-45,1.88-7.06.13q-3.72.07-7.28-.15v.29q3.35,1.24,6.81,2.56c2.3.88,4.61,1.83,6.91,2.86l36.32,16.07c.5.08.75.51.76,1.29v.59c0,.77-.24,1.21-.75,1.32l-35.83,17.29q-3.43,1.66-7,3.26t-7,3v.29q3.67-.21,7.39-.36c2.48-.1,4.87-.16,7.17-.21l44.76.17c.64,0,1,.37,1,1.15l0,8c0,.78-.32,1.17-1,1.19l-68.7-.3c-.65,0-1-.37-1-1.15L133,110.58a1.58,1.58,0,0,1,.75-1.47L175.92,90l-42.36-17.7a1.52,1.52,0,0,1-.76-1.44L132.74,58c0-.78.32-1.17,1-1.18l68.69-2.91c.64,0,1,.37,1,1.15Z" transform="translate(-5.5 -5.96)"/><path class="cls-1" d="M251.85,54.56v69.67H211.38V54.56h40.47m1-1H210.38v71.67h42.47V53.56Z" transform="translate(-5.5 -5.96)"/><path class="cls-1" d="M251.85,131.5v121H211.38v-121h40.47m1-1H210.38v123h42.47v-123Z" transform="translate(-5.5 -5.96)"/><path class="cls-2" d="M196.18,203.69c-.77,0-1.16-.32-1.17-1l-1.86-45.31-.14-7.12q-.06-3.75.16-7.33h-.29c-.83,2.25-1.68,4.53-2.55,6.86s-1.81,4.64-2.83,7l-15.95,36.59c-.08.5-.51.76-1.28.76h-.58c-.77,0-1.21-.25-1.32-.76l-17.15-36.1q-1.66-3.47-3.24-7c-1.06-2.39-2-4.73-3-7.05h-.29q.22,3.7.36,7.44t.21,7.23l-.17,45.1c0,.65-.37,1-1.14,1l-8,0c-.77,0-1.16-.32-1.18-1l.3-69.23c0-.65.37-1,1.14-1l12.72-.06a1.57,1.57,0,0,1,1.46.75l19,42.51,17.57-42.69a1.51,1.51,0,0,1,1.43-.76l12.72-.06c.78,0,1.17.32,1.18,1l2.88,69.21c0,.65-.37,1-1.14,1Z" transform="translate(-5.5 -5.96)"/><path class="cls-1" d="M204.61,211.73v40.78H135.48V211.73h69.13m1-1H134.48v42.78h71.13V210.73Z" transform="translate(-5.5 -5.96)"/><path class="cls-1" d="M299.62,7V128H259.15V7h40.47m1-1H258.15V129h42.47V6Z" transform="translate(-5.5 -5.96)"/><path class="cls-2" d="M314.82,55.79c.77,0,1.16.32,1.17,1l1.86,45.3.14,7.12q.06,3.75-.16,7.34h.29q1.25-3.37,2.55-6.86t2.83-7L339.45,66.1c.08-.51.51-.77,1.28-.77h.58c.77,0,1.21.25,1.32.75l17.15,36.11q1.67,3.47,3.24,7t3,7h.29q-.22-3.69-.36-7.44t-.21-7.23l.17-45.1c0-.65.37-1,1.14-1l7.95,0c.77,0,1.16.32,1.18,1l-.3,69.23c0,.65-.37,1-1.14,1l-12.72.07a1.55,1.55,0,0,1-1.46-.76l-19-42.5-17.57,42.68a1.52,1.52,0,0,1-1.43.77l-12.72.06c-.78,0-1.17-.32-1.18-1l-2.88-69.21q0-1,1.14-1Z" transform="translate(-5.5 -5.96)"/><path class="cls-1" d="M375.52,7V47.75H306.39V7h69.13m1-1H305.39V48.75h71.13V6Z" transform="translate(-5.5 -5.96)"/><path class="cls-1" d="M379.23,211.73v40.78H259.15V211.73H379.23m1-1H258.15v42.78H380.23V210.73Z" transform="translate(-5.5 -5.96)"/><path class="cls-2" d="M307.6,196.41c0-.77.32-1.17,1-1.18l45-1.87,7.06-.14q3.72-.06,7.28.16v-.29l-6.81-2.57c-2.3-.88-4.61-1.83-6.91-2.86L317.83,171.6c-.5-.09-.75-.52-.76-1.3v-.58c0-.78.24-1.22.75-1.33l35.83-17.29q3.44-1.66,7-3.26t7-3v-.3q-3.67.23-7.39.36t-7.17.21L308.32,145c-.64,0-1-.37-1-1.15l0-8c0-.77.32-1.17,1-1.18l68.7.3c.65,0,1,.37,1,1.14l.06,12.82a1.61,1.61,0,0,1-.75,1.48l-42.18,19.15,42.36,17.7a1.53,1.53,0,0,1,.76,1.44l.06,12.82c0,.78-.32,1.18-1,1.19l-68.69,2.9c-.64,0-1-.37-1-1.14Z" transform="translate(-5.5 -5.96)"/><path class="cls-1" d="M299.62,135.24v69.67H259.15V135.24h40.47m1-1H258.15v71.67h42.47V134.24Z" transform="translate(-5.5 -5.96)"/><path class="cls-1" d="M504.5,7V47.75H384.42V7H504.5m1-1H383.42V48.75H505.5V6Z" transform="translate(-5.5 -5.96)"/><path class="cls-2" d="M456.05,63.06c0,.78-.31,1.17-1,1.18l-45,1.88-7.07.13c-2.48,0-4.9,0-7.28-.15v.29q3.36,1.24,6.81,2.56c2.31.88,4.61,1.83,6.92,2.86l36.31,16.07c.5.08.76.51.76,1.29v.59c0,.77-.24,1.21-.74,1.32L410,108.37q-3.45,1.66-7,3.26t-7,3v.29q3.66-.21,7.38-.36c2.48-.1,4.87-.16,7.17-.21l44.76.17c.65,0,1,.37,1,1.15l0,8c0,.78-.31,1.17-1,1.19l-68.7-.3c-.65,0-1-.37-1-1.15l-.06-12.82a1.58,1.58,0,0,1,.75-1.47L428.57,90l-42.36-17.7a1.54,1.54,0,0,1-.76-1.44L385.39,58c0-.78.32-1.17,1-1.18L455,53.9c.65,0,1,.37,1,1.15Z" transform="translate(-5.5 -5.96)"/><path class="cls-1" d="M504.5,54.56v69.67H464V54.56H504.5m1-1H463v71.67H505.5V53.56Z" transform="translate(-5.5 -5.96)"/><path class="cls-1" d="M504.5,131.5v121H464v-121H504.5m1-1H463v123H505.5v-123Z" transform="translate(-5.5 -5.96)"/><path class="cls-2" d="M448.83,203.69c-.77,0-1.16-.32-1.17-1l-1.86-45.31-.13-7.12q-.07-3.75.15-7.33h-.29c-.82,2.25-1.67,4.53-2.55,6.86s-1.81,4.64-2.83,7l-15.94,36.59c-.09.5-.52.76-1.29.76h-.58c-.77,0-1.21-.25-1.31-.76l-17.16-36.1q-1.65-3.47-3.24-7c-1.06-2.39-2-4.73-2.95-7.05h-.29q.21,3.7.35,7.44t.21,7.23l-.17,45.1c0,.65-.36,1-1.14,1l-7.95,0c-.77,0-1.16-.32-1.17-1l.29-69.23c0-.65.37-1,1.14-1l12.73-.06a1.58,1.58,0,0,1,1.46.75l19,42.51,17.56-42.69a1.51,1.51,0,0,1,1.43-.76l12.73-.06c.77,0,1.16.32,1.17,1l2.88,69.21c0,.65-.36,1-1.13,1Z" transform="translate(-5.5 -5.96)"/><path class="cls-1" d="M457.26,211.73v40.78H388.13V211.73h69.13m1-1H387.13v42.78h71.13V210.73Z" transform="translate(-5.5 -5.96)"/><path class="cls-1" d="M47,259.41v121H6.5v-121H47m1-1H5.5v123H48v-123Z" transform="translate(-5.5 -5.96)"/><path class="cls-2" d="M62.17,308.23c.77,0,1.16.32,1.17,1l1.86,45.3.13,7.12c0,2.5,0,4.94-.15,7.34h.29q1.23-3.37,2.55-6.85t2.83-7l15.94-36.59c.09-.51.52-.77,1.29-.77h.58c.77,0,1.21.24,1.31.75l17.16,36.1q1.65,3.48,3.24,7.05t2.95,7.05h.29q-.21-3.69-.35-7.44t-.21-7.23l.17-45.1c0-.65.36-1,1.14-1l8,0c.77,0,1.16.32,1.17,1l-.29,69.23c0,.65-.37,1-1.14,1l-12.73.06a1.56,1.56,0,0,1-1.46-.75l-19-42.51L71.29,378.61a1.52,1.52,0,0,1-1.43.77l-12.73.06c-.77,0-1.16-.32-1.17-1l-2.88-69.21c0-.66.36-1,1.13-1Z" transform="translate(-5.5 -5.96)"/><path class="cls-1" d="M122.87,259.41V300.2H53.74V259.41h69.13m1-1H52.74V301.2h71.13V258.41Z" transform="translate(-5.5 -5.96)"/><path class="cls-1" d="M126.58,464.17V505H6.5V464.17H126.58m1-1H5.5V506H127.58V463.17Z" transform="translate(-5.5 -5.96)"/><path class="cls-2" d="M55,448.86c0-.77.31-1.17,1-1.18l45-1.87,7.07-.14c2.48-.05,4.9,0,7.28.16v-.3q-3.36-1.25-6.81-2.56c-2.31-.88-4.61-1.83-6.92-2.86L65.18,424.05c-.5-.09-.76-.52-.76-1.3v-.58c0-.78.24-1.22.74-1.33L101,403.55q3.45-1.67,7-3.26t7-3V397q-3.66.23-7.38.36t-7.17.21l-44.76-.17c-.65,0-1-.37-1-1.15l0-8c0-.78.31-1.17,1-1.18l68.7.3c.65,0,1,.37,1,1.14l.06,12.82a1.58,1.58,0,0,1-.75,1.47L82.43,422l42.36,17.7a1.54,1.54,0,0,1,.76,1.44l.06,12.82c0,.78-.32,1.17-1,1.19L56,458c-.65,0-1-.37-1-1.15Z" transform="translate(-5.5 -5.96)"/><path class="cls-1" d="M47,387.69v69.67H6.5V387.69H47m1-1H5.5v71.67H48V386.69Z" transform="translate(-5.5 -5.96)"/><path class="cls-1" d="M251.85,259.41V300.2H131.77V259.41H251.85m1-1H130.77V301.2H252.85V258.41Z" transform="translate(-5.5 -5.96)"/><path class="cls-2" d="M203.4,315.51c0,.77-.32,1.17-1,1.18l-45,1.88-7.06.13c-2.48.05-4.91,0-7.28-.15v.29q3.35,1.25,6.81,2.56c2.3.88,4.61,1.83,6.91,2.86l36.32,16.06c.5.09.75.52.76,1.3v.58c0,.78-.24,1.22-.75,1.33l-35.83,17.29q-3.43,1.67-7,3.26t-7,3v.29q3.67-.23,7.39-.36t7.17-.21l44.76.17c.64,0,1,.37,1,1.15l0,8c0,.78-.32,1.17-1,1.19L134,377c-.65,0-1-.38-1-1.15L133,363a1.58,1.58,0,0,1,.75-1.47l42.18-19.16-42.36-17.7a1.52,1.52,0,0,1-.76-1.44l-.06-12.82c0-.78.32-1.17,1-1.19l68.69-2.9c.64,0,1,.37,1,1.15Z" transform="translate(-5.5 -5.96)"/><path class="cls-1" d="M251.85,307v69.67H211.38V307h40.47m1-1H210.38v71.67h42.47V306Z" transform="translate(-5.5 -5.96)"/><path class="cls-1" d="M251.85,384V505H211.38V384h40.47m1-1H210.38V506h42.47V383Z" transform="translate(-5.5 -5.96)"/><path class="cls-2" d="M196.18,456.14c-.77,0-1.16-.32-1.17-1l-1.86-45.31-.14-7.12c0-2.5,0-4.94.16-7.34h-.29q-1.24,3.38-2.55,6.85t-2.83,7l-15.95,36.59c-.08.51-.51.77-1.28.77h-.58q-1.16,0-1.32-.75l-17.15-36.1q-1.66-3.48-3.24-7.05t-3-7.05h-.29q.22,3.69.36,7.44t.21,7.23l-.17,45.1c0,.65-.37,1-1.14,1l-8,0c-.77,0-1.16-.32-1.18-1l.3-69.23c0-.65.37-1,1.14-1l12.72-.06a1.55,1.55,0,0,1,1.46.75l19,42.51,17.57-42.69a1.51,1.51,0,0,1,1.43-.76l12.72-.07c.78,0,1.17.32,1.18,1l2.88,69.21c0,.65-.37,1-1.14,1Z" transform="translate(-5.5 -5.96)"/><path class="cls-1" d="M204.61,464.17V505H135.48V464.17h69.13m1-1H134.48V506h71.13V463.17Z" transform="translate(-5.5 -5.96)"/><path class="cls-1" d="M299.62,259.41v121H259.15v-121h40.47m1-1H258.15v123h42.47v-123Z" transform="translate(-5.5 -5.96)"/><path class="cls-2" d="M314.82,308.23c.77,0,1.16.32,1.17,1l1.86,45.3.14,7.12c0,2.5,0,4.94-.16,7.34h.29q1.25-3.37,2.55-6.85t2.83-7l15.95-36.59c.08-.51.51-.77,1.28-.77h.58q1.15,0,1.32.75l17.15,36.1q1.67,3.48,3.24,7.05t3,7.05h.29q-.22-3.69-.36-7.44t-.21-7.23l.17-45.1c0-.65.37-1,1.14-1l7.95,0c.77,0,1.16.32,1.18,1l-.3,69.23c0,.65-.37,1-1.14,1l-12.72.06a1.55,1.55,0,0,1-1.46-.75l-19-42.51-17.57,42.69a1.52,1.52,0,0,1-1.43.77l-12.72.06c-.78,0-1.17-.32-1.18-1l-2.88-69.21c0-.66.37-1,1.14-1Z" transform="translate(-5.5 -5.96)"/><path class="cls-1" d="M375.52,259.41V300.2H306.39V259.41h69.13m1-1H305.39V301.2h71.13V258.41Z" transform="translate(-5.5 -5.96)"/><path class="cls-1" d="M379.23,464.17V505H259.15V464.17H379.23m1-1H258.15V506H380.23V463.17Z" transform="translate(-5.5 -5.96)"/><path class="cls-2" d="M307.6,448.86c0-.77.32-1.17,1-1.18l45-1.87,7.06-.14c2.48-.05,4.91,0,7.28.16v-.3q-3.35-1.25-6.81-2.56c-2.3-.88-4.61-1.83-6.91-2.86l-36.32-16.06c-.5-.09-.75-.52-.76-1.3v-.58c0-.78.24-1.22.75-1.33l35.83-17.29q3.44-1.67,7-3.26t7-3V397q-3.67.23-7.39.36t-7.17.21l-44.76-.17c-.64,0-1-.37-1-1.15l0-8c0-.78.32-1.17,1-1.18l68.7.3c.65,0,1,.37,1,1.14l.06,12.82a1.58,1.58,0,0,1-.75,1.47L335.08,422l42.36,17.7a1.52,1.52,0,0,1,.76,1.44l.06,12.82c0,.78-.32,1.17-1,1.19L308.61,458c-.64,0-1-.37-1-1.15Z" transform="translate(-5.5 -5.96)"/><path class="cls-1" d="M299.62,387.69v69.67H259.15V387.69h40.47m1-1H258.15v71.67h42.47V386.69Z" transform="translate(-5.5 -5.96)"/><path class="cls-1" d="M504.5,259.41V300.2H384.42V259.41H504.5m1-1H383.42V301.2H505.5V258.41Z" transform="translate(-5.5 -5.96)"/><path class="cls-2" d="M456.05,315.51c0,.77-.31,1.17-1,1.18l-45,1.88-7.07.13c-2.48.05-4.9,0-7.28-.15v.29q3.36,1.25,6.81,2.56c2.31.88,4.61,1.83,6.92,2.86l36.31,16.06c.5.09.76.52.76,1.3v.58c0,.78-.24,1.22-.74,1.33L410,360.82q-3.45,1.67-7,3.26t-7,3v.29q3.66-.23,7.38-.36t7.17-.21l44.76.17c.65,0,1,.37,1,1.15l0,8c0,.78-.31,1.17-1,1.19l-68.7-.3c-.65,0-1-.38-1-1.15L385.64,363a1.58,1.58,0,0,1,.75-1.47l42.18-19.16-42.36-17.7a1.54,1.54,0,0,1-.76-1.44l-.06-12.82c0-.78.32-1.17,1-1.19l68.68-2.9c.65,0,1,.37,1,1.15Z" transform="translate(-5.5 -5.96)"/><path class="cls-1" d="M504.5,307v69.67H464V307H504.5m1-1H463v71.67H505.5V306Z" transform="translate(-5.5 -5.96)"/><path class="cls-1" d="M504.5,384V505H464V384H504.5m1-1H463V506H505.5V383Z" transform="translate(-5.5 -5.96)"/><path class="cls-2" d="M448.83,456.14c-.77,0-1.16-.32-1.17-1l-1.86-45.31-.13-7.12c-.05-2.5,0-4.94.15-7.34h-.29q-1.23,3.38-2.55,6.85t-2.83,7l-15.94,36.59c-.09.51-.52.77-1.29.77h-.58c-.77,0-1.21-.24-1.31-.75l-17.16-36.1q-1.65-3.48-3.24-7.05t-2.95-7.05h-.29q.21,3.69.35,7.44t.21,7.23l-.17,45.1c0,.65-.36,1-1.14,1l-7.95,0c-.77,0-1.16-.32-1.17-1l.29-69.23c0-.65.37-1,1.14-1l12.73-.06a1.56,1.56,0,0,1,1.46.75l19,42.51,17.56-42.69a1.51,1.51,0,0,1,1.43-.76l12.73-.07c.77,0,1.16.32,1.17,1l2.88,69.21c0,.65-.36,1-1.13,1Z" transform="translate(-5.5 -5.96)"/><path class="cls-1" d="M457.26,464.17V505H388.13V464.17h69.13m1-1H387.13V506h71.13V463.17Z" transform="translate(-5.5 -5.96)"/></svg>