<?xml version="1.0" encoding="utf-8"?>
<!-- Generator: Adobe Illustrator 25.2.0, SVG Export Plug-In . SVG Version: 6.00 Build 0)  -->
<svg version="1.1" id="Layer_1" xmlns="http://www.w3.org/2000/svg" xmlns:xlink="http://www.w3.org/1999/xlink" x="0px" y="0px"
	 viewBox="0 0 409.6 409.6" style="enable-background:new 0 0 409.6 409.6;" xml:space="preserve">
<style type="text/css">
	.st0{clip-path:url(#SVGID_2_);}
	.st1{fill:#FFFFFF;}
</style>
<g>
	<g>
		<defs>
			<circle id="SVGID_1_" cx="204.8" cy="204.8" r="204.8"/>
		</defs>
		<clipPath id="SVGID_2_">
			<use xlink:href="#SVGID_1_"  style="overflow:visible;"/>
		</clipPath>
		<g id="Layer_2_1_" class="st0">
			<g id="Layer_1-2">
				<circle class="st1" cx="204.8" cy="204.8" r="150"/>
				<g>
					<g>
						<path d="M217,409.7c-8,0-16,0-24,0c-1.3-0.2-2.6-0.5-3.9-0.7c-7.5-1-15.1-1.6-22.5-3c-44.8-8.6-82.6-29.9-113.2-63.6
							C26.7,313.1,10,278.8,3.3,239.8c-1.3-7.6-2.1-15.3-3.1-22.9c0-8,0-16,0-24c0.2-1.4,0.5-2.8,0.7-4.2c1-7.4,1.6-14.8,3-22.1
							C12.5,121.8,33.8,84,67.4,53.3C96.7,26.6,131,9.9,170.1,3.3c7.6-1.3,15.3-2.1,22.9-3.1c8,0,16,0,24,0
							c5.3,0.6,10.6,1.1,15.8,1.9c40.7,5.9,76.8,22,107.6,49.4c35.7,31.7,57.8,71.2,66.2,118.3c1.4,7.7,2.1,15.5,3.2,23.2
							c0,8,0,16,0,24c-0.6,5.3-1.2,10.5-1.9,15.8c-7.1,48.4-28.3,89.5-64.2,122.8c-29.5,27.3-64.2,44.3-103.8,51.1
							C232.3,407.9,224.6,408.7,217,409.7z M259.5,311.9c8.6,0,16.9-1.7,24.8-5.3c9.9-4.5,17-12.3,24.4-19.7c5.5-5.5,5.5-9.9,0-15.4
							c-11.7-11.8-23.5-23.6-35.3-35.4c-5.5-5.4-9.9-5.4-15.4,0.2c-6.4,6.4-12.7,12.9-19.1,19.3c-7.8,7.8-17.1,8.5-26,2.2
							c-23-16.4-42.9-35.9-59.7-58.5c-7.2-9.6-6.6-18.6,1.9-27.2c6.7-6.7,13.4-13.3,20.1-20.1c4.8-4.9,4.9-9.5,0.1-14.3
							c-12.1-12.2-24.3-24.4-36.5-36.5c-4.7-4.6-9.3-4.6-14,0c-3.9,3.8-7.8,7.6-11.6,11.6c-12.2,12.9-17.8,28.2-15.4,46
							c1.7,12.6,7,24,12.8,35.1c24.9,47,61.2,82.5,109.1,105.8C232.2,306,245.3,310.9,259.5,311.9z"/>
					</g>
				</g>
			</g>
		</g>
	</g>
</g>
</svg>
