<svg xmlns="http://www.w3.org/2000/svg" viewBox="0 0 909.84 265.4"><defs><style>.cls-1{fill:#b0ff07;}.cls-2{fill:#d9d9d9;}.cls-2,.cls-3{fill-opacity:0.5;}.cls-3{fill:#f5f5f5;}</style></defs><g id="Layer_2" data-name="Layer 2"><g id="Layer_1-2" data-name="Layer 1"><path class="cls-1" d="M35.76,222.41v-140h4v136.2h83.4v3.8Zm116,0v-140h4v140Zm57.22,0v-140h55.4q21.6,0,34.2,9,12.81,8.81,12.8,26.4,0,11.61-5.6,19.4a33.55,33.55,0,0,1-15.6,11.4,64.3,64.3,0,0,1-23,3.8l3.4-2.6q16.2,0,26.8,4.2,10.8,4,16.2,12t5.4,19.8q0,17.61-12.6,27.2-12.39,9.41-38,9.4Zm4-3.8h56.2q22.41,0,34-7.8,11.81-8,11.8-25T303.2,161q-11.59-7.8-34-7.8H212v-3.8h53.2q20,0,31-8,11.21-8,11.2-23.6t-11.2-23.6q-11-8-31-8H213Zm145.61,3.8v-140H406q17.21,0,29.4,5.6,12.4,5.4,19,15.6t6.6,24.8q0,14.4-6.6,24.8-6.6,10.2-19,15.8-12.2,5.4-29.4,5.4h-45.2l1.8-1.8v49.8Zm99.4,0-36.6-50.8h5l36.6,50.8Zm-95.4-50.2-1.8-1.6h45.6q24.6,0,37.6-11,13-11.19,13-31.2,0-20.19-13-31.2t-37.6-11h-45.6l1.8-1.6ZM477,222.41l65-140h4L611,222l-2,5L543,85.61h2l-63.4,136.8Zm21.4-42.2,2-3.8h87l2,3.8Z"/><path class="cls-1" d="M50,61.5,37.5,74,0,36.5,12.5,24Z"/><path class="cls-1" d="M52.25,58,40,45.75,61.75,24,74,36.25Z"/><path class="cls-2" d="M37.15,42.8c-.24.24-.45.26-.65.06L16.13,21q-.29-.3.06-.66l3.86-3.95a.65.65,0,0,1,.67-.21l18.4,7.42L31.82,4.83A.66.66,0,0,1,32,4.15L35.89.2c.23-.24.45-.26.64-.06L57.87,21q.29.3-.06.66L55.4,24.12c-.24.24-.45.26-.65.06L40.86,10.59c-.7-.72-1.41-1.47-2.15-2.26S37.24,6.76,36.53,6l-.09.09c.44,1,.86,2,1.28,3.06s.8,2.09,1.18,3.14l5.9,16.28c.12.18.06.4-.17.64l-.17.18c-.24.24-.45.29-.63.17l-16-6.1c-1-.38-2-.79-3-1.22l-2.87-1.28-.09.09c.78.68,1.55,1.4,2.3,2.17l2.14,2.19L39.62,39.67q.29.3-.06.66Z"/><path class="cls-3" d="M565.71,265.4a1.43,1.43,0,0,1-1.69-1.69l1.69-81.77a1.5,1.5,0,0,1,1.69-1.69h18.72a1.85,1.85,0,0,1,1.82,1.3l21.06,45,20.8-45a2.09,2.09,0,0,1,2-1.3h18.59c1,0,1.56.57,1.56,1.69l1.82,81.77a1.74,1.74,0,0,1-.52,1.3,1.59,1.59,0,0,1-1.17.39H637.21a1.49,1.49,0,0,1-1.69-1.69l-.78-35.49q-.13-5.33,0-10.92c.17-3.81.35-7.49.52-11.05h-.39q-2.21,5.2-4.68,10.66t-5.07,10.53l-14,28.47a2,2,0,0,1-2,1h-.65a1.85,1.85,0,0,1-1.82-1l-14.17-28.73q-2.47-5.07-4.94-10.4T583,206.25h-.39q.25,5.34.39,10.92T583,228l-.78,35.75a1.49,1.49,0,0,1-1.69,1.69Zm103.16,0a1.49,1.49,0,0,1-1.69-1.69V181.94a1.5,1.5,0,0,1,1.69-1.69h51.87a1.5,1.5,0,0,1,1.69,1.69v12.87c0,1-.57,1.56-1.69,1.56h-35v18.46h31.85a1.5,1.5,0,0,1,1.69,1.69v12c0,1-.57,1.56-1.69,1.56H685.77v19.24h35c1.12,0,1.69.52,1.69,1.56v12.87a1.5,1.5,0,0,1-1.69,1.69Zm70.71,0a1.49,1.49,0,0,1-1.69-1.69V181.94a1.5,1.5,0,0,1,1.69-1.69h51.09a1.5,1.5,0,0,1,1.69,1.69v12.87c0,1-.56,1.56-1.69,1.56H756.48v15.21h12.09q16.9,0,24.83,6.5t8.06,19q0,9.24-3.64,15.6a22.21,22.21,0,0,1-11.05,9.49q-7.54,3.25-19.11,3.25Zm16.9-15.08H767.4q7.8,0,11.7-3t3.9-9.75q0-6.5-3.77-9.23t-11.57-2.73H756.48ZM806,265.4c-1.22,0-1.65-.6-1.3-1.82l27.17-82a1.93,1.93,0,0,1,2-1.3h19.89a1.72,1.72,0,0,1,1.82,1.3l27.43,82a1.35,1.35,0,0,1-.13,1.3c-.18.35-.57.52-1.17.52H864.91a1.7,1.7,0,0,1-1.82-1.3L848.4,213.79q-1.3-4.41-2.47-8.84c-.7-3-1.43-6-2.21-9h-.26q-1.17,4.43-2.21,9t-2.34,9L824.35,264a1.73,1.73,0,0,1-1.82,1.43Zm86.92,0a1.49,1.49,0,0,1-1.69-1.69V181.94a1.5,1.5,0,0,1,1.69-1.69h15.21a1.5,1.5,0,0,1,1.69,1.69v81.77a1.49,1.49,0,0,1-1.69,1.69Z"/></g></g></svg>