<?xml version="1.0" encoding="utf-8"?>
<!-- Generator: Adobe Illustrator 25.2.0, SVG Export Plug-In . SVG Version: 6.00 Build 0)  -->
<svg version="1.1" id="Layer_1" xmlns="http://www.w3.org/2000/svg" xmlns:xlink="http://www.w3.org/1999/xlink" x="0px" y="0px"
	 viewBox="0 0 409.6 409.6" style="enable-background:new 0 0 409.6 409.6;" xml:space="preserve">
<style type="text/css">
	.st0{clip-path:url(#SVGID_2_);}
	.st1{fill:#FFFFFF;}
</style>
<g>
	<defs>
		<circle id="SVGID_1_" cx="204.8" cy="204.8" r="204.8"/>
	</defs>
	<clipPath id="SVGID_2_">
		<use xlink:href="#SVGID_1_"  style="overflow:visible;"/>
	</clipPath>
	<g id="Layer_2_1_" class="st0">
		<g id="Layer_1-2">
			<circle class="st1" cx="204.8" cy="204.8" r="150"/>
			<g>
				<g>
					<path d="M216.8,409.6c-8,0-16,0-24,0c-1.3-0.2-2.6-0.5-3.9-0.7c-7.5-1-15.1-1.6-22.5-3c-44.8-8.6-82.6-29.9-113.2-63.6
						C26.5,313,9.8,278.7,3.1,239.7C1.8,232.1,1,224.4,0,216.8c0-8,0-16,0-24c0.2-1.4,0.5-2.8,0.7-4.2c1-7.4,1.6-14.8,3-22.1
						c8.6-44.8,29.9-82.6,63.5-113.3c29.3-26.7,63.6-43.4,102.7-50c7.6-1.3,15.3-2.1,22.9-3.1c8,0,16,0,24,0
						c5.3,0.6,10.6,1.1,15.8,1.9c40.7,5.9,76.8,22,107.6,49.4c35.7,31.7,57.8,71.2,66.2,118.3c1.4,7.7,2.1,15.5,3.2,23.2
						c0,8,0,16,0,24c-0.6,5.3-1.2,10.5-1.9,15.8c-7.1,48.4-28.3,89.5-64.2,122.8c-29.5,27.3-64.2,44.3-103.8,51.1
						C232.1,407.8,224.4,408.6,216.8,409.6z M259.3,311.8c8.6,0,16.9-1.7,24.8-5.3c9.9-4.5,17-12.3,24.4-19.7
						c5.5-5.5,5.5-9.9,0-15.4c-11.7-11.8-23.5-23.6-35.3-35.4c-5.5-5.4-9.9-5.4-15.4,0.2c-6.4,6.4-12.7,12.9-19.1,19.3
						c-7.8,7.8-17.1,8.5-26,2.2c-23-16.4-42.9-35.9-59.7-58.5c-7.2-9.6-6.6-18.6,1.9-27.2c6.7-6.7,13.4-13.3,20.1-20.1
						c4.8-4.9,4.9-9.5,0.1-14.3c-12.1-12.2-24.3-24.4-36.5-36.5c-4.7-4.6-9.3-4.6-14,0c-3.9,3.8-7.8,7.6-11.6,11.6
						c-12.2,12.9-17.8,28.2-15.4,46c1.7,12.6,7,24,12.8,35.1c24.9,47,61.2,82.5,109.1,105.8C232,305.9,245.1,310.8,259.3,311.8z"/>
					<path class="st1" d="M216.8,409.6c7.6-1,15.3-1.8,22.9-3.1c39.6-6.8,74.3-23.8,103.8-51.1c35.9-33.3,57.1-74.4,64.2-122.8
						c0.8-5.2,1.3-10.5,1.9-15.8c0,64.3,0,128.5,0,192.8C345.3,409.6,281.1,409.6,216.8,409.6z"/>
					<path class="st1" d="M409.6,192.8c-1-7.7-1.8-15.5-3.2-23.2c-8.4-47-30.5-86.5-66.2-118.3C309.5,23.9,273.4,7.7,232.6,1.9
						c-5.3-0.8-10.5-1.3-15.8-1.9c64.3,0,128.5,0,192.8,0C409.6,64.3,409.6,128.5,409.6,192.8z"/>
					<path class="st1" d="M192.8,0c-7.6,1-15.3,1.8-22.9,3.1c-39.1,6.7-73.4,23.4-102.7,50C33.6,83.8,12.4,121.7,3.7,166.4
						c-1.4,7.3-2,14.8-3,22.1c-0.2,1.4-0.5,2.8-0.7,4.2C0,128.5,0,64.3,0,0C64.3,0,128.5,0,192.8,0z"/>
					<path class="st1" d="M0,216.8c1,7.6,1.8,15.3,3.1,22.9c6.6,39.1,23.4,73.4,50,102.7c30.7,33.7,68.5,54.9,113.2,63.6
						c7.4,1.4,15,2,22.5,3c1.3,0.2,2.6,0.5,3.9,0.7c-64.3,0-128.5,0-192.8,0C0,345.3,0,281.1,0,216.8z"/>
					<path class="st1" d="M259.3,311.8c-14.2-1-27.4-5.9-39.9-12.1c-47.8-23.4-84.2-58.8-109.1-105.8c-5.8-11-11-22.5-12.8-35.1
						c-2.5-17.8,3.1-33.1,15.4-46c3.8-4,7.6-7.8,11.6-11.6c4.8-4.5,9.3-4.6,14,0c12.2,12.1,24.4,24.3,36.5,36.5
						c4.8,4.8,4.7,9.4-0.1,14.3c-6.6,6.7-13.4,13.4-20.1,20.1c-8.5,8.6-9.1,17.5-1.9,27.2c16.9,22.6,36.8,42.1,59.7,58.5
						c8.9,6.4,18.2,5.6,26-2.2c6.4-6.4,12.7-12.9,19.1-19.3c5.5-5.5,10-5.6,15.4-0.2c11.8,11.8,23.6,23.6,35.3,35.4
						c5.5,5.6,5.5,9.9,0,15.4c-7.4,7.4-14.6,15.2-24.4,19.7C276.2,310.1,268,311.8,259.3,311.8z"/>
				</g>
			</g>
		</g>
	</g>
</g>
</svg>
